<svg id="visual" viewBox="0 0 900 600" width="900" height="600" xmlns="http://www.w3.org/2000/svg" xmlns:xlink="http://www.w3.org/1999/xlink" version="1.1"><g stroke-width="1" stroke-linejoin="bevel"><path d="M450 304L373.7 278L432 352Z" fill="#d3750a" stroke="#d3750a"></path><path d="M450 304L409.7 260L373.7 278Z" fill="#b9421a" stroke="#b9421a"></path><path d="M373.7 278L385.7 371L432 352Z" fill="#c35316" stroke="#c35316"></path><path d="M373.7 278L337.4 333L385.7 371Z" fill="#e2ce00" stroke="#e2ce00"></path><path d="M385.7 371L438 388L432 352Z" fill="#e2ce00" stroke="#e2ce00"></path><path d="M432 352L539.3 353L450 304Z" fill="#e3bc00" stroke="#e3bc00"></path><path d="M359.7 457L409.7 403L385.7 371Z" fill="#d9f422" stroke="#d9f422"></path><path d="M385.7 371L409.7 403L438 388Z" fill="#d9f422" stroke="#d9f422"></path><path d="M450 304L444 216L409.7 260Z" fill="#e2ce00" stroke="#e2ce00"></path><path d="M409.7 260L364.7 180L373.7 278Z" fill="#cc6411" stroke="#cc6411"></path><path d="M549.3 321L505.3 270L450 304Z" fill="#e3bc00" stroke="#e3bc00"></path><path d="M450 304L505.3 270L444 216Z" fill="#de9800" stroke="#de9800"></path><path d="M237.1 343L304.4 369L232.1 318Z" fill="#e2ce00" stroke="#e2ce00"></path><path d="M337.4 333L304.4 369L385.7 371Z" fill="#b9421a" stroke="#b9421a"></path><path d="M442 146L426 198L444 216Z" fill="#e3bc00" stroke="#e3bc00"></path><path d="M444 216L426 198L409.7 260Z" fill="#de9800" stroke="#de9800"></path><path d="M373.7 278L291.4 229L337.4 333Z" fill="#d98703" stroke="#d98703"></path><path d="M426 198L364.7 180L409.7 260Z" fill="#e2ce00" stroke="#e2ce00"></path><path d="M304.4 369L320.4 427L385.7 371Z" fill="#b9421a" stroke="#b9421a"></path><path d="M526.3 423L539.3 353L438 388Z" fill="#cc6411" stroke="#cc6411"></path><path d="M438 388L539.3 353L432 352Z" fill="#e1aa00" stroke="#e1aa00"></path><path d="M364.7 180L291.4 229L373.7 278Z" fill="#d3750a" stroke="#d3750a"></path><path d="M237.1 343L278.1 387L304.4 369Z" fill="#d98703" stroke="#d98703"></path><path d="M304.4 369L278.1 387L320.4 427Z" fill="#e1aa00" stroke="#e1aa00"></path><path d="M539.3 353L549.3 321L450 304Z" fill="#d9f422" stroke="#d9f422"></path><path d="M320.4 427L359.7 457L385.7 371Z" fill="#d9f422" stroke="#d9f422"></path><path d="M486.3 460L526.3 423L438 388Z" fill="#d3750a" stroke="#d3750a"></path><path d="M364.7 180L292.1 209L291.4 229Z" fill="#dfe108" stroke="#dfe108"></path><path d="M232.1 318L304.4 369L337.4 333Z" fill="#d98703" stroke="#d98703"></path><path d="M560.6 329L559.6 313L549.3 321Z" fill="#d9f422" stroke="#d9f422"></path><path d="M549.3 321L559.6 313L505.3 270Z" fill="#c35316" stroke="#c35316"></path><path d="M505.3 270L514.3 192L444 216Z" fill="#d3750a" stroke="#d3750a"></path><path d="M539.3 353L560.6 329L549.3 321Z" fill="#e2ce00" stroke="#e2ce00"></path><path d="M456 471L438 388L409.7 403Z" fill="#de9800" stroke="#de9800"></path><path d="M539.3 353L668.9 393L560.6 329Z" fill="#e2ce00" stroke="#e2ce00"></path><path d="M585.6 250L514.3 192L505.3 270Z" fill="#b9421a" stroke="#b9421a"></path><path d="M426 198L442 146L364.7 180Z" fill="#d9f422" stroke="#d9f422"></path><path d="M359.7 457L456 471L409.7 403Z" fill="#d98703" stroke="#d98703"></path><path d="M456 471L486.3 460L438 388Z" fill="#e3bc00" stroke="#e3bc00"></path><path d="M232.1 318L337.4 333L291.4 229Z" fill="#de9800" stroke="#de9800"></path><path d="M196.9 215L232.1 318L291.4 229Z" fill="#dfe108" stroke="#dfe108"></path><path d="M514.3 192L442 146L444 216Z" fill="#de9800" stroke="#de9800"></path><path d="M364.7 180L306.4 162L292.1 209Z" fill="#de9800" stroke="#de9800"></path><path d="M331.4 143L306.4 162L364.7 180Z" fill="#de9800" stroke="#de9800"></path><path d="M292.1 209L196.9 215L291.4 229Z" fill="#d98703" stroke="#d98703"></path><path d="M347.7 87L331.4 143L364.7 180Z" fill="#b9421a" stroke="#b9421a"></path><path d="M173.9 298L216.9 344L232.1 318Z" fill="#d98703" stroke="#d98703"></path><path d="M232.1 318L216.9 344L237.1 343Z" fill="#c35316" stroke="#c35316"></path><path d="M237.1 343L223.9 382L278.1 387Z" fill="#e2ce00" stroke="#e2ce00"></path><path d="M278.1 387L284.4 468L320.4 427Z" fill="#dfe108" stroke="#dfe108"></path><path d="M216.9 344L223.9 382L237.1 343Z" fill="#e3bc00" stroke="#e3bc00"></path><path d="M320.4 427L284.4 468L359.7 457Z" fill="#d3750a" stroke="#d3750a"></path><path d="M628.9 301L585.6 250L559.6 313Z" fill="#d98703" stroke="#d98703"></path><path d="M559.6 313L585.6 250L505.3 270Z" fill="#d9f422" stroke="#d9f422"></path><path d="M223.9 382L284.4 468L278.1 387Z" fill="#e2ce00" stroke="#e2ce00"></path><path d="M412.7 569L441 566L456 471Z" fill="#dfe108" stroke="#dfe108"></path><path d="M598.6 177L539.3 150L514.3 192Z" fill="#dfe108" stroke="#dfe108"></path><path d="M514.3 192L539.3 150L442 146Z" fill="#d3750a" stroke="#d3750a"></path><path d="M598.6 177L540.6 149L539.3 150Z" fill="#e2ce00" stroke="#e2ce00"></path><path d="M539.3 150L480.3 60L442 146Z" fill="#d3750a" stroke="#d3750a"></path><path d="M581.6 457L572.6 450L542.6 510Z" fill="#d3750a" stroke="#d3750a"></path><path d="M542.6 510L572.6 450L526.3 423Z" fill="#d3750a" stroke="#d3750a"></path><path d="M526.3 423L572.6 450L539.3 353Z" fill="#d9f422" stroke="#d9f422"></path><path d="M560.6 329L628.9 301L559.6 313Z" fill="#c35316" stroke="#c35316"></path><path d="M292.1 90L258.1 151L306.4 162Z" fill="#c35316" stroke="#c35316"></path><path d="M306.4 162L258.1 151L292.1 209Z" fill="#e3bc00" stroke="#e3bc00"></path><path d="M674.9 358L628.9 301L560.6 329Z" fill="#e3bc00" stroke="#e3bc00"></path><path d="M585.6 250L598.6 177L514.3 192Z" fill="#c35316" stroke="#c35316"></path><path d="M542.6 510L526.3 423L486.3 460Z" fill="#e1aa00" stroke="#e1aa00"></path><path d="M668.9 393L674.9 358L560.6 329Z" fill="#c35316" stroke="#c35316"></path><path d="M226.1 498L280.1 507L284.4 468Z" fill="#dfe108" stroke="#dfe108"></path><path d="M284.4 468L280.1 507L359.7 457Z" fill="#e2ce00" stroke="#e2ce00"></path><path d="M489.3 554L542.6 510L486.3 460Z" fill="#e1aa00" stroke="#e1aa00"></path><path d="M258.1 151L196.9 215L292.1 209Z" fill="#c35316" stroke="#c35316"></path><path d="M196.9 215L173.9 298L232.1 318Z" fill="#d98703" stroke="#d98703"></path><path d="M216.9 344L124.6 381L223.9 382Z" fill="#de9800" stroke="#de9800"></path><path d="M223.9 382L226.1 498L284.4 468Z" fill="#e1aa00" stroke="#e1aa00"></path><path d="M442 146L347.7 87L364.7 180Z" fill="#e3bc00" stroke="#e3bc00"></path><path d="M331.4 143L292.1 90L306.4 162Z" fill="#b9421a" stroke="#b9421a"></path><path d="M480.3 60L347.7 87L442 146Z" fill="#e1aa00" stroke="#e1aa00"></path><path d="M643.9 263L598.6 177L585.6 250Z" fill="#d3750a" stroke="#d3750a"></path><path d="M489.3 554L486.3 460L456 471Z" fill="#de9800" stroke="#de9800"></path><path d="M628.9 301L643.9 263L585.6 250Z" fill="#cc6411" stroke="#cc6411"></path><path d="M721.1 304L643.9 263L628.9 301Z" fill="#d3750a" stroke="#d3750a"></path><path d="M196.9 215L166.9 244L173.9 298Z" fill="#e1aa00" stroke="#e1aa00"></path><path d="M133.6 212L166.9 244L196.9 215Z" fill="#e1aa00" stroke="#e1aa00"></path><path d="M347.7 87L292.1 90L331.4 143Z" fill="#e3bc00" stroke="#e3bc00"></path><path d="M108.6 163L133.6 212L196.9 215Z" fill="#e1aa00" stroke="#e1aa00"></path><path d="M412.7 569L456 471L359.7 457Z" fill="#d3750a" stroke="#d3750a"></path><path d="M441 566L489.3 554L456 471Z" fill="#d9f422" stroke="#d9f422"></path><path d="M312.4 563L412.7 569L359.7 457Z" fill="#de9800" stroke="#de9800"></path><path d="M171.9 477L226.1 498L223.9 382Z" fill="#de9800" stroke="#de9800"></path><path d="M280.1 507L312.4 563L359.7 457Z" fill="#de9800" stroke="#de9800"></path><path d="M293.1 600L312.4 563L280.1 507Z" fill="#de9800" stroke="#de9800"></path><path d="M597.6 80L480.3 60L540.6 149Z" fill="#dfe108" stroke="#dfe108"></path><path d="M540.6 149L480.3 60L539.3 150Z" fill="#e2ce00" stroke="#e2ce00"></path><path d="M347.7 87L283.4 59L292.1 90Z" fill="#dfe108" stroke="#dfe108"></path><path d="M542.6 510L616.9 474L581.6 457Z" fill="#b9421a" stroke="#b9421a"></path><path d="M668.9 393L539.3 353L572.6 450Z" fill="#d3750a" stroke="#d3750a"></path><path d="M646.9 564L616.9 474L542.6 510Z" fill="#e2ce00" stroke="#e2ce00"></path><path d="M668.9 393L572.6 450L581.6 457Z" fill="#b9421a" stroke="#b9421a"></path><path d="M616.9 474L668.9 393L581.6 457Z" fill="#dfe108" stroke="#dfe108"></path><path d="M352.7 23L283.4 59L347.7 87Z" fill="#cc6411" stroke="#cc6411"></path><path d="M292.1 90L252.1 74L258.1 151Z" fill="#cc6411" stroke="#cc6411"></path><path d="M128.6 421L171.9 477L223.9 382Z" fill="#d9f422" stroke="#d9f422"></path><path d="M293.1 600L320.4 600L312.4 563Z" fill="#b9421a" stroke="#b9421a"></path><path d="M120.6 326L216.9 344L173.9 298Z" fill="#b9421a" stroke="#b9421a"></path><path d="M166.9 244L120.6 326L173.9 298Z" fill="#d98703" stroke="#d98703"></path><path d="M283.4 59L252.1 74L292.1 90Z" fill="#de9800" stroke="#de9800"></path><path d="M166.9 244L97.3 235L120.6 326Z" fill="#d9f422" stroke="#d9f422"></path><path d="M312.4 563L381.7 600L412.7 569Z" fill="#dfe108" stroke="#dfe108"></path><path d="M412.7 569L428 600L441 566Z" fill="#d98703" stroke="#d98703"></path><path d="M441 566L428 600L489.3 554Z" fill="#e1aa00" stroke="#e1aa00"></path><path d="M381.7 600L428 600L412.7 569Z" fill="#de9800" stroke="#de9800"></path><path d="M489.3 554L527.3 600L542.6 510Z" fill="#d3750a" stroke="#d3750a"></path><path d="M120.6 326L124.6 381L216.9 344Z" fill="#e1aa00" stroke="#e1aa00"></path><path d="M154.6 99L196.9 215L258.1 151Z" fill="#d9f422" stroke="#d9f422"></path><path d="M487.3 0L464 26L480.3 60Z" fill="#d9f422" stroke="#d9f422"></path><path d="M480.3 60L464 26L347.7 87Z" fill="#d9f422" stroke="#d9f422"></path><path d="M124.6 381L128.6 421L223.9 382Z" fill="#d3750a" stroke="#d3750a"></path><path d="M395.7 0L352.7 23L347.7 87Z" fill="#cc6411" stroke="#cc6411"></path><path d="M166.9 29L157.9 91L252.1 74Z" fill="#b9421a" stroke="#b9421a"></path><path d="M293.1 600L280.1 507L206.9 600Z" fill="#dfe108" stroke="#dfe108"></path><path d="M312.4 563L320.4 600L381.7 600Z" fill="#e1aa00" stroke="#e1aa00"></path><path d="M643.9 263L676.9 193L598.6 177Z" fill="#d98703" stroke="#d98703"></path><path d="M598.6 177L597.6 80L540.6 149Z" fill="#b9421a" stroke="#b9421a"></path><path d="M712.1 216L676.9 193L643.9 263Z" fill="#d9f422" stroke="#d9f422"></path><path d="M740.1 428L700.1 381L668.9 393Z" fill="#d3750a" stroke="#d3750a"></path><path d="M668.9 393L700.1 381L674.9 358Z" fill="#d3750a" stroke="#d3750a"></path><path d="M674.9 358L721.1 304L628.9 301Z" fill="#d98703" stroke="#d98703"></path><path d="M619.9 80L597.6 80L598.6 177Z" fill="#d3750a" stroke="#d3750a"></path><path d="M97.6 474L166.9 507L171.9 477Z" fill="#d3750a" stroke="#d3750a"></path><path d="M171.9 477L166.9 507L226.1 498Z" fill="#d9f422" stroke="#d9f422"></path><path d="M206.9 600L280.1 507L226.1 498Z" fill="#b9421a" stroke="#b9421a"></path><path d="M428 600L527.3 600L489.3 554Z" fill="#d9f422" stroke="#d9f422"></path><path d="M737.1 465L740.1 428L668.9 393Z" fill="#e1aa00" stroke="#e1aa00"></path><path d="M414 0L395.7 0L347.7 87Z" fill="#dfe108" stroke="#dfe108"></path><path d="M352.7 23L357.4 0L283.4 59Z" fill="#cc6411" stroke="#cc6411"></path><path d="M487.3 0L414 0L464 26Z" fill="#e2ce00" stroke="#e2ce00"></path><path d="M464 26L414 0L347.7 87Z" fill="#e1aa00" stroke="#e1aa00"></path><path d="M108.6 163L97.3 235L133.6 212Z" fill="#dfe108" stroke="#dfe108"></path><path d="M133.6 212L97.3 235L166.9 244Z" fill="#e3bc00" stroke="#e3bc00"></path><path d="M120.6 326L75.3 395L124.6 381Z" fill="#d3750a" stroke="#d3750a"></path><path d="M70.3 404L96.3 455L128.6 421Z" fill="#d9f422" stroke="#d9f422"></path><path d="M700.1 381L721.1 304L674.9 358Z" fill="#dfe108" stroke="#dfe108"></path><path d="M395.7 0L357.4 0L352.7 23Z" fill="#b9421a" stroke="#b9421a"></path><path d="M653.9 94L619.9 80L598.6 177Z" fill="#dfe108" stroke="#dfe108"></path><path d="M597.6 80L487.3 0L480.3 60Z" fill="#e2ce00" stroke="#e2ce00"></path><path d="M735.1 262L712.1 216L643.9 263Z" fill="#dfe108" stroke="#dfe108"></path><path d="M676.9 193L653.9 94L598.6 177Z" fill="#b9421a" stroke="#b9421a"></path><path d="M614.6 0L487.3 0L597.6 80Z" fill="#e3bc00" stroke="#e3bc00"></path><path d="M157.9 91L258.1 151L252.1 74Z" fill="#cc6411" stroke="#cc6411"></path><path d="M157.9 91L154.6 99L258.1 151Z" fill="#d3750a" stroke="#d3750a"></path><path d="M0 254L76.3 262L0 202Z" fill="#d98703" stroke="#d98703"></path><path d="M97.3 235L76.3 262L120.6 326Z" fill="#d9f422" stroke="#d9f422"></path><path d="M154.6 99L108.6 163L196.9 215Z" fill="#e2ce00" stroke="#e2ce00"></path><path d="M233.1 0L252.1 74L283.4 59Z" fill="#c35316" stroke="#c35316"></path><path d="M154.6 99L95.3 138L108.6 163Z" fill="#e1aa00" stroke="#e1aa00"></path><path d="M718.1 128L653.9 94L676.9 193Z" fill="#d3750a" stroke="#d3750a"></path><path d="M619.9 80L614.6 0L597.6 80Z" fill="#d3750a" stroke="#d3750a"></path><path d="M792.4 275L735.1 262L721.1 304Z" fill="#e1aa00" stroke="#e1aa00"></path><path d="M721.1 304L735.1 262L643.9 263Z" fill="#e2ce00" stroke="#e2ce00"></path><path d="M712.1 216L718.1 128L676.9 193Z" fill="#e1aa00" stroke="#e1aa00"></path><path d="M128.6 421L96.3 455L171.9 477Z" fill="#cc6411" stroke="#cc6411"></path><path d="M75.3 395L128.6 421L124.6 381Z" fill="#c35316" stroke="#c35316"></path><path d="M0 336L75.3 395L120.6 326Z" fill="#d9f422" stroke="#d9f422"></path><path d="M527.3 600L585.6 600L542.6 510Z" fill="#e3bc00" stroke="#e3bc00"></path><path d="M0 388L70.3 404L75.3 395Z" fill="#e2ce00" stroke="#e2ce00"></path><path d="M75.3 395L70.3 404L128.6 421Z" fill="#e1aa00" stroke="#e1aa00"></path><path d="M73.3 515L97.6 474L0 494Z" fill="#e3bc00" stroke="#e3bc00"></path><path d="M96.3 455L97.6 474L171.9 477Z" fill="#d3750a" stroke="#d3750a"></path><path d="M166.9 507L206.9 600L226.1 498Z" fill="#d3750a" stroke="#d3750a"></path><path d="M147.6 600L206.9 600L166.9 507Z" fill="#dfe108" stroke="#dfe108"></path><path d="M585.6 600L646.9 564L542.6 510Z" fill="#d9f422" stroke="#d9f422"></path><path d="M800.4 348L795.4 329L721.1 304Z" fill="#d9f422" stroke="#d9f422"></path><path d="M737.1 465L668.9 393L616.9 474Z" fill="#e1aa00" stroke="#e1aa00"></path><path d="M121.6 86L95.3 138L154.6 99Z" fill="#b9421a" stroke="#b9421a"></path><path d="M108.6 163L66.3 150L97.3 235Z" fill="#b9421a" stroke="#b9421a"></path><path d="M357.4 0L233.1 0L283.4 59Z" fill="#de9800" stroke="#de9800"></path><path d="M157.9 91L121.6 86L154.6 99Z" fill="#dfe108" stroke="#dfe108"></path><path d="M166.9 29L121.6 86L157.9 91Z" fill="#d3750a" stroke="#d3750a"></path><path d="M585.6 600L627.9 600L646.9 564Z" fill="#b9421a" stroke="#b9421a"></path><path d="M646.9 564L737.1 465L616.9 474Z" fill="#d98703" stroke="#d98703"></path><path d="M761.4 116L718.1 128L792.4 165Z" fill="#e2ce00" stroke="#e2ce00"></path><path d="M675.9 0L614.6 0L619.9 80Z" fill="#dfe108" stroke="#dfe108"></path><path d="M766.4 449L737.1 465L776.4 508Z" fill="#de9800" stroke="#de9800"></path><path d="M737.1 465L747.4 447L740.1 428Z" fill="#d9f422" stroke="#d9f422"></path><path d="M795.4 329L792.4 275L721.1 304Z" fill="#e2ce00" stroke="#e2ce00"></path><path d="M73.3 515L94.6 514L97.6 474Z" fill="#cc6411" stroke="#cc6411"></path><path d="M97.6 474L94.6 514L166.9 507Z" fill="#e1aa00" stroke="#e1aa00"></path><path d="M718.1 128L702.1 97L653.9 94Z" fill="#e3bc00" stroke="#e3bc00"></path><path d="M233.1 0L166.9 29L252.1 74Z" fill="#dfe108" stroke="#dfe108"></path><path d="M87.3 63L95.3 138L121.6 86Z" fill="#de9800" stroke="#de9800"></path><path d="M87.3 63L66.3 150L95.3 138Z" fill="#d3750a" stroke="#d3750a"></path><path d="M95.3 138L66.3 150L108.6 163Z" fill="#d9f422" stroke="#d9f422"></path><path d="M76.3 262L0 336L120.6 326Z" fill="#d98703" stroke="#d98703"></path><path d="M675.9 0L619.9 80L653.9 94Z" fill="#cc6411" stroke="#cc6411"></path><path d="M233.1 0L183.9 0L166.9 29Z" fill="#d98703" stroke="#d98703"></path><path d="M166.9 29L87.3 63L121.6 86Z" fill="#dfe108" stroke="#dfe108"></path><path d="M94.6 514L147.6 600L166.9 507Z" fill="#c35316" stroke="#c35316"></path><path d="M731.1 562L737.1 465L646.9 564Z" fill="#e3bc00" stroke="#e3bc00"></path><path d="M737.1 465L766.4 449L747.4 447Z" fill="#d9f422" stroke="#d9f422"></path><path d="M747.4 447L766.4 449L740.1 428Z" fill="#e1aa00" stroke="#e1aa00"></path><path d="M735.1 262L792.4 165L712.1 216Z" fill="#e3bc00" stroke="#e3bc00"></path><path d="M0 494L97.6 474L96.3 455Z" fill="#e3bc00" stroke="#e3bc00"></path><path d="M94.6 514L26.3 600L147.6 600Z" fill="#d98703" stroke="#d98703"></path><path d="M721.1 304L700.1 381L800.4 348Z" fill="#d3750a" stroke="#d3750a"></path><path d="M800.4 348L700.1 381L740.1 428Z" fill="#d98703" stroke="#d98703"></path><path d="M766.4 449L800.4 348L740.1 428Z" fill="#e1aa00" stroke="#e1aa00"></path><path d="M857.7 319L811.7 260L792.4 275Z" fill="#d3750a" stroke="#d3750a"></path><path d="M107.6 0L87.3 63L166.9 29Z" fill="#d3750a" stroke="#d3750a"></path><path d="M0 254L0 336L76.3 262Z" fill="#d3750a" stroke="#d3750a"></path><path d="M70.3 404L0 494L96.3 455Z" fill="#d98703" stroke="#d98703"></path><path d="M76.3 262L97.3 235L0 202Z" fill="#cc6411" stroke="#cc6411"></path><path d="M0 202L97.3 235L66.3 150Z" fill="#d98703" stroke="#d98703"></path><path d="M718.1 128L761.4 116L702.1 97Z" fill="#b9421a" stroke="#b9421a"></path><path d="M702.1 97L675.9 0L653.9 94Z" fill="#b9421a" stroke="#b9421a"></path><path d="M792.4 165L718.1 128L712.1 216Z" fill="#de9800" stroke="#de9800"></path><path d="M730.1 600L731.1 562L646.9 564Z" fill="#d9f422" stroke="#d9f422"></path><path d="M766.4 449L854.7 378L800.4 348Z" fill="#d3750a" stroke="#d3750a"></path><path d="M0 336L0 388L75.3 395Z" fill="#c35316" stroke="#c35316"></path><path d="M857.7 319L792.4 275L795.4 329Z" fill="#c35316" stroke="#c35316"></path><path d="M792.4 275L811.7 260L735.1 262Z" fill="#de9800" stroke="#de9800"></path><path d="M0 388L0 399L70.3 404Z" fill="#d3750a" stroke="#d3750a"></path><path d="M743.1 0L675.9 0L702.1 97Z" fill="#dfe108" stroke="#dfe108"></path><path d="M811.7 260L792.4 165L735.1 262Z" fill="#e3bc00" stroke="#e3bc00"></path><path d="M0 127L0 202L66.3 150Z" fill="#d98703" stroke="#d98703"></path><path d="M731.1 562L776.4 508L737.1 465Z" fill="#e2ce00" stroke="#e2ce00"></path><path d="M183.9 0L107.6 0L166.9 29Z" fill="#c35316" stroke="#c35316"></path><path d="M87.3 63L0 127L66.3 150Z" fill="#dfe108" stroke="#dfe108"></path><path d="M627.9 600L730.1 600L646.9 564Z" fill="#b9421a" stroke="#b9421a"></path><path d="M731.1 562L803.4 600L776.4 508Z" fill="#dfe108" stroke="#dfe108"></path><path d="M855.7 556L809.7 478L776.4 508Z" fill="#e1aa00" stroke="#e1aa00"></path><path d="M776.4 508L809.7 478L766.4 449Z" fill="#b9421a" stroke="#b9421a"></path><path d="M800.4 348L857.7 319L795.4 329Z" fill="#b9421a" stroke="#b9421a"></path><path d="M0 399L0 494L70.3 404Z" fill="#e1aa00" stroke="#e1aa00"></path><path d="M73.3 515L26.3 600L94.6 514Z" fill="#e3bc00" stroke="#e3bc00"></path><path d="M107.6 0L91.3 0L87.3 63Z" fill="#e1aa00" stroke="#e1aa00"></path><path d="M0 35L0 127L87.3 63Z" fill="#d9f422" stroke="#d9f422"></path><path d="M846.7 103L761.4 116L792.4 165Z" fill="#de9800" stroke="#de9800"></path><path d="M846.7 103L785.4 76L761.4 116Z" fill="#d3750a" stroke="#d3750a"></path><path d="M761.4 116L785.4 76L702.1 97Z" fill="#dfe108" stroke="#dfe108"></path><path d="M854.7 378L857.7 319L800.4 348Z" fill="#d3750a" stroke="#d3750a"></path><path d="M811.7 260L861.7 150L792.4 165Z" fill="#de9800" stroke="#de9800"></path><path d="M860.7 428L854.7 378L766.4 449Z" fill="#d98703" stroke="#d98703"></path><path d="M785.4 76L743.1 0L702.1 97Z" fill="#e3bc00" stroke="#e3bc00"></path><path d="M785.4 76L748.4 0L743.1 0Z" fill="#c35316" stroke="#c35316"></path><path d="M900 439L860.7 428L900 484Z" fill="#de9800" stroke="#de9800"></path><path d="M809.7 478L860.7 428L766.4 449Z" fill="#d3750a" stroke="#d3750a"></path><path d="M900 374L900 322L857.7 319Z" fill="#cc6411" stroke="#cc6411"></path><path d="M0 566L26.3 600L73.3 515Z" fill="#cc6411" stroke="#cc6411"></path><path d="M0 494L0 566L73.3 515Z" fill="#b9421a" stroke="#b9421a"></path><path d="M900 210L861.7 150L811.7 260Z" fill="#c35316" stroke="#c35316"></path><path d="M785.4 76L828.7 0L748.4 0Z" fill="#b9421a" stroke="#b9421a"></path><path d="M900 268L811.7 260L857.7 319Z" fill="#e2ce00" stroke="#e2ce00"></path><path d="M861.7 150L846.7 103L792.4 165Z" fill="#e1aa00" stroke="#e1aa00"></path><path d="M91.3 0L0 35L87.3 63Z" fill="#de9800" stroke="#de9800"></path><path d="M730.1 600L803.4 600L731.1 562Z" fill="#e1aa00" stroke="#e1aa00"></path><path d="M0 566L0 600L26.3 600Z" fill="#b9421a" stroke="#b9421a"></path><path d="M900 374L854.7 378L860.7 428Z" fill="#e1aa00" stroke="#e1aa00"></path><path d="M900 374L857.7 319L854.7 378Z" fill="#e3bc00" stroke="#e3bc00"></path><path d="M900 322L900 268L857.7 319Z" fill="#dfe108" stroke="#dfe108"></path><path d="M900 63L861.7 63L846.7 103Z" fill="#de9800" stroke="#de9800"></path><path d="M900 439L900 374L860.7 428Z" fill="#c35316" stroke="#c35316"></path><path d="M900 268L900 210L811.7 260Z" fill="#d9f422" stroke="#d9f422"></path><path d="M900 484L860.7 428L809.7 478Z" fill="#dfe108" stroke="#dfe108"></path><path d="M91.3 0L0 0L0 35Z" fill="#d3750a" stroke="#d3750a"></path><path d="M803.4 600L855.7 556L776.4 508Z" fill="#e3bc00" stroke="#e3bc00"></path><path d="M900 127L846.7 103L861.7 150Z" fill="#d98703" stroke="#d98703"></path><path d="M846.7 103L861.7 63L785.4 76Z" fill="#d3750a" stroke="#d3750a"></path><path d="M855.7 556L900 484L809.7 478Z" fill="#e3bc00" stroke="#e3bc00"></path><path d="M861.7 63L828.7 0L785.4 76Z" fill="#e1aa00" stroke="#e1aa00"></path><path d="M900 210L900 127L861.7 150Z" fill="#d3750a" stroke="#d3750a"></path><path d="M861.7 63L900 0L828.7 0Z" fill="#cc6411" stroke="#cc6411"></path><path d="M803.4 600L852.7 600L855.7 556Z" fill="#de9800" stroke="#de9800"></path><path d="M855.7 556L900 527L900 484Z" fill="#e2ce00" stroke="#e2ce00"></path><path d="M900 600L900 527L855.7 556Z" fill="#e1aa00" stroke="#e1aa00"></path><path d="M900 127L900 63L846.7 103Z" fill="#e3bc00" stroke="#e3bc00"></path><path d="M852.7 600L900 600L855.7 556Z" fill="#d3750a" stroke="#d3750a"></path><path d="M900 63L900 0L861.7 63Z" fill="#cc6411" stroke="#cc6411"></path></g></svg>