<svg xmlns="http://www.w3.org/2000/svg" xmlns:xlink="http://www.w3.org/1999/xlink" width="500" height="300" viewBox="0 0 500 300">
  <defs>
    <clipPath id="clip-path">
      <rect id="Rectangle_20" data-name="Rectangle 20" width="422" height="208.595" fill="none"/>
    </clipPath>
    <clipPath id="clip-Madina">
      <rect width="500" height="300"/>
    </clipPath>
  </defs>
  <g id="Madina" clip-path="url(#clip-Madina)">
    <rect width="500" height="300" fill="#F1F5F9"/>
    <g id="Group_34" data-name="Group 34" transform="translate(39 46)">
      <g id="Group_33" data-name="Group 33" clip-path="url(#clip-path)">
        <path id="Path_584" data-name="Path 584" d="M202.982,37.767a34.216,34.216,0,0,0,8.984,4.676,35.889,35.889,0,0,1,7.455-2.5,35.4,35.4,0,0,1,17.15.5,34.728,34.728,0,0,0-33.589-2.681" transform="translate(-27.833 -4.751)" fill="#d9bf61"/>
        <path id="Path_585" data-name="Path 585" d="M214.369,53.288a35.774,35.774,0,0,1,6.049-5.024,35.4,35.4,0,0,1,16.173-5.726A34.729,34.729,0,0,0,204.3,52.174a34.2,34.2,0,0,0,10.067,1.114" transform="translate(-28.014 -5.721)" fill="#d9bf61"/>
        <path id="Path_586" data-name="Path 586" d="M274.711,65.219a34.167,34.167,0,0,0-5.182-8.7,35.83,35.83,0,0,1-7.655-1.8,35.391,35.391,0,0,1-14.319-9.45,34.722,34.722,0,0,0,27.155,19.95" transform="translate(-33.945 -6.207)" fill="#d9bf61"/>
        <path id="Path_587" data-name="Path 587" d="M220.949,62a35.919,35.919,0,0,1,3.824-6.871,35.412,35.412,0,0,1,13.013-11.182A34.728,34.728,0,0,0,211.16,64.6a34.179,34.179,0,0,0,9.789-2.6" transform="translate(-28.954 -6.026)" fill="#d9bf61"/>
        <path id="Path_588" data-name="Path 588" d="M216.892,10.87a34.2,34.2,0,0,0,3.489,9.509,35.8,35.8,0,0,1,7.192,3.176A35.391,35.391,0,0,1,239.9,35.483,34.724,34.724,0,0,0,216.892,10.87" transform="translate(-29.74 -1.49)" fill="#d9bf61"/>
        <path id="Path_589" data-name="Path 589" d="M272.95,46.811a35.818,35.818,0,0,1-7.787,1.091A35.4,35.4,0,0,1,248.4,44.263a34.726,34.726,0,0,0,32.529,8.791,34.19,34.19,0,0,0-7.976-6.243" transform="translate(-34.06 -6.069)" fill="#d9bf61"/>
        <path id="Path_590" data-name="Path 590" d="M227.956,56.6a34.5,34.5,0,0,0-5.328,17.306,34.166,34.166,0,0,0,8.189-5.96,35.843,35.843,0,0,1,1.086-7.787A35.374,35.374,0,0,1,240,45.03,34.515,34.515,0,0,0,227.956,56.6" transform="translate(-30.527 -6.175)" fill="#d9bf61"/>
        <path id="Path_591" data-name="Path 591" d="M252.108,10.346a35.805,35.805,0,0,1,.369,7.854,35.4,35.4,0,0,1-5.166,16.361,34.53,34.53,0,0,0,9.7-13.59,34.491,34.491,0,0,0,2.048-17.992,34.177,34.177,0,0,0-6.95,7.367" transform="translate(-33.911 -0.408)" fill="#d9bf61"/>
        <path id="Path_592" data-name="Path 592" d="M282.325,38.434a34.2,34.2,0,0,0-9.693-2.94,35.807,35.807,0,0,1-6.867,3.83,35.394,35.394,0,0,1-16.948,2.665,34.725,34.725,0,0,0,33.507-3.555" transform="translate(-34.118 -4.867)" fill="#d9bf61"/>
        <path id="Path_593" data-name="Path 593" d="M207.376,23.256a34.179,34.179,0,0,0,6.688,7.605,35.88,35.88,0,0,1,7.855.363,35.4,35.4,0,0,1,15.809,6.667,34.725,34.725,0,0,0-30.352-14.635" transform="translate(-28.435 -3.18)" fill="#d9bf61"/>
        <path id="Path_594" data-name="Path 594" d="M229.987,12.875a35.843,35.843,0,0,1,5.559,5.56,35.407,35.407,0,0,1,7.19,15.578A34.731,34.731,0,0,0,230.17,2.748a34.174,34.174,0,0,0-.183,10.127" transform="translate(-31.496 -0.377)" fill="#d9bf61"/>
        <path id="Path_595" data-name="Path 595" d="M249.06,62.711a35.4,35.4,0,0,1-4.213-16.632,34.724,34.724,0,0,0,6.623,33.039,34.194,34.194,0,0,0,2.036-9.921,35.88,35.88,0,0,1-4.446-6.485" transform="translate(-33.348 -6.318)" fill="#d9bf61"/>
        <path id="Path_596" data-name="Path 596" d="M264.521,74.317a34.162,34.162,0,0,0-1.687-9.987,35.837,35.837,0,0,1-6.488-4.44A35.393,35.393,0,0,1,246.408,45.9a34.725,34.725,0,0,0,18.113,28.414" transform="translate(-33.788 -6.294)" fill="#d9bf61"/>
        <path id="Path_597" data-name="Path 597" d="M242.333,70.459a35.917,35.917,0,0,1-1.8-7.654,35.386,35.386,0,0,1,2.081-17.03,34.721,34.721,0,0,0-5.761,33.2,34.163,34.163,0,0,0,5.482-8.516" transform="translate(-32.212 -6.277)" fill="#d9bf61"/>
        <path id="Path_598" data-name="Path 598" d="M268.621,24.585a35.83,35.83,0,0,1-5.019,6.052,35.39,35.39,0,0,1-14.842,8.608,34.72,34.72,0,0,0,29.961-15.421,34.21,34.21,0,0,0-10.1.761" transform="translate(-34.11 -3.254)" fill="#d9bf61"/>
        <path id="Path_599" data-name="Path 599" d="M258.964,23.116A35.382,35.382,0,0,1,248.235,36.5a34.52,34.52,0,0,0,13.955-9.167A34.494,34.494,0,0,0,270.6,11.3a34.188,34.188,0,0,0-9.142,4.358,35.87,35.87,0,0,1-2.494,7.457" transform="translate(-34.038 -1.55)" fill="#d9bf61"/>
        <path id="Path_600" data-name="Path 600" d="M245.442,33.694A34.726,34.726,0,0,0,245.02,0a34.179,34.179,0,0,0-3.829,9.376,35.833,35.833,0,0,1,3.175,7.194,35.391,35.391,0,0,1,1.076,17.123" transform="translate(-33.072 0)" fill="#d9bf61"/>
        <path id="Path_601" data-name="Path 601" d="M163.422,155.865a18.976,18.976,0,0,1-1.476,2.231l-.164.249a45.172,45.172,0,0,1-9.61,10.026,35.644,35.644,0,0,1-9.422,4.72,25.15,25.15,0,0,1-6.851,1.2,19.243,19.243,0,0,1-3.624-.212,6.355,6.355,0,0,1-4.949-3.609,13.024,13.024,0,0,1-.284-8.184c1.934-7.065,6.514-13.859,11.835-18.929a52.86,52.86,0,0,1,13.233-9.2c3.7-1.761,8.632-3.753,13.935-3.663a4.814,4.814,0,0,1,3.129,1.092,2.693,2.693,0,0,1,.931,2.111,8.04,8.04,0,0,1-2.451,6.013c-4.062,4.13-10.208,7.1-18.259,8.763-1.933.4-4.618-.028-5.554-1.851l-.184-.355.409.044c6.162.667,12.437-.925,16.786-4.262,1.532-1.219,3.461-3.441,3.234-5.664-.153-1.493-1.77-2.42-3.4-2.42h-.005a16.749,16.749,0,0,0-8.88,2.577,39.517,39.517,0,0,0-14.31,14.795c-2.758,5.287-4.008,9.66-3.93,13.759a4.941,4.941,0,0,0,2.971,4.765,7.946,7.946,0,0,0,2.711.433,16.424,16.424,0,0,0,6.762-1.274,32.162,32.162,0,0,0,12.828-10.53,42.194,42.194,0,0,0,2.906-4.207c.471-.811.784-1.52,1.25-2.461l.817-1.836c.14-.324.4-.355.419.053a11.935,11.935,0,0,1-.809,5.825" transform="translate(-17.349 -17.893)"/>
        <path id="Path_602" data-name="Path 602" d="M12.521,168.307c6.918,4.971,18.295,5.083,26.482-.607a33.274,33.274,0,0,0,10.54-11.971,43.37,43.37,0,0,0,2.159-4.064c4.3-8.952,9.627-20.273,14.131-30.6,1.355-3.108-.441-3.835-2.556-2.785a.443.443,0,0,1-.41-.782,44.084,44.084,0,0,1,5.372-3.541c3-1.783,9.155-4.288,13.622-4.642.4-.041.488.229.16.365-4.009,1.607-7.311,6.569-9.01,10.321l-7.12,15.93c-7.872,16.988-7.857,17.224-10.021,21.053C46.89,172.877,24.577,178.778,11.3,170.77a28.821,28.821,0,0,1-4.539-3.437C5.6,166.249,4,164.289,3.882,162.141a2.826,2.826,0,0,1,2.435-3.179,1.821,1.821,0,0,1,2.175,1.986,9.068,9.068,0,0,0,4.029,7.359" transform="translate(-0.531 -14.989)"/>
        <path id="Path_603" data-name="Path 603" d="M88.625,109.544c-3.257,7.31-9.152,20.121-9.282,20.4-9.957,21.622-16.22,34.78-17.875,38.314l-.4.771,8.193-1.5.271-.385c3.248-6.394,12.845-18.187,19.421-25.03,5.684-6.076,12.908-11.407,15.461-11.407,1.325,0,2.58.247,2.586,1.542,0,1.038-.6,2.628-1.825,4.867-8.6,16.176-13.361,25.14-14.253,31.175l-.122.878,1.127-.424c7.062-2.812,8.756-3.239,12.979-5.059.509-.217.108-1.054-.441-.836a8.943,8.943,0,0,1-3.533.79,1.458,1.458,0,0,1-1.347-1.445c0-1.233,2.9-6.933,10.5-21.751,3-5.715,4.35-8.309,5.064-9.911a8.483,8.483,0,0,0,.639-1.8,5.66,5.66,0,0,0,.085-1.212v-.12c0-1.44-2.013-2.233-3.641-2.233-3.033,0-8.072,1.646-14.395,6.074-6,4.249-10.548,9.063-21.519,19.55l5.262-11.048c1.2-2.678,4.127-9.26,5.05-11.188,2.817-5.894,6.942-15.2,9.229-20.628l.42-.928c1.2-2.774,4.157-9.521,5.422-11.973.223-.446-.162-.757-.583-.41A37.3,37.3,0,0,1,87.35,98.667c-11.282,1.184-22.782.537-41.465,2.227-6.476-4.387-13.174-8.305-23.911-7.517-8.1.577-16.533,4.535-19.344,11.467a5.473,5.473,0,0,0,.157,4.991,2.822,2.822,0,0,0,3.091,1.544,1.645,1.645,0,0,0,1.581-1.425,2.124,2.124,0,0,0-.279-1.079,4.845,4.845,0,0,1-.532-3.222c.453-3.605,2.873-6.338,6.58-8.106,6.108-2.91,16.5-1.9,22.247,1.57a20.868,20.868,0,0,1,4.232,2.819c-1.935.324-3.611.6-5.658,1.021-10.513,2.289-23.918,8.21-30,17.964C.9,125.964-1.036,131.613.588,137.311c1.866,6.548,6.963,9.279,13.179,10.6a36.446,36.446,0,0,0,6.254.419c8.179,0,17.213-3.73,24.628-10.38,8.617-8.891,10.439-18.969,5.506-30.853a11.5,11.5,0,0,0-1.367-2.577c1.005-.095,1.511-.134,3.517-.27,12.431-.846,25.41-1.178,35.04-.251,2.043.266,2.73,1.133,2.133,3.351a18.225,18.225,0,0,1-.853,2.188M35.9,141.632c-7.419,4.113-16.183,4.417-22.332,1.148-4.756-2.528-7.29-7.026-7.542-12.635.23-7.077,4.84-15.59,16.338-20.55,6.638-3.158,20.378-4.583,20.378-4.583,3.219,2.822,5.081,8.053,5.974,12.637,1.786,9.167-2.49,17.825-12.815,23.984" transform="translate(0 -12.79)"/>
        <path id="Path_604" data-name="Path 604" d="M207.02,110.795c-8,5.574-12.841,14.555-14.324,23.438a37.309,37.309,0,0,0,.661,15.421,28.286,28.286,0,0,0,9.095,14.128c5.391,4.769,12.066,6.985,18.93,7.769a41.292,41.292,0,0,0,4.876.254c9.861-.036,16-2.325,24.005-7.4,12.095-7.677,22.031-20.411,24.563-34.339,1.582-8.7-.038-14.216-2.309-20.03A24.693,24.693,0,0,0,259.342,96.5a32.589,32.589,0,0,0-15.267-2.938A33.545,33.545,0,0,0,225.587,99.8a38.28,38.28,0,0,0-6.215,5.737,33.693,33.693,0,0,0-12.351,5.261m10.12-1.7a36.148,36.148,0,0,0-5,13.037c-1.013,8.036.249,15.159,3.416,23.334.629,1.63.954,2.572,1.3,3.754a17.6,17.6,0,0,1-.019,10.929,6.762,6.762,0,0,1-3,3.614,34.522,34.522,0,0,1-3.669-2.232c-.364-.256-.607-.461-.88-.688-3.741-3.12-7.562-6.863-9.24-14.512a42.486,42.486,0,0,1-.873-8.259,37.376,37.376,0,0,1,3.758-16.475c1.749-3.533,5.192-8.382,9.323-10.561a20.675,20.675,0,0,1,4.877-1.942m22.156-12a23.886,23.886,0,0,1,4.636-.452,22.776,22.776,0,0,1,7.825,1.355A20.169,20.169,0,0,1,259.584,103a21.365,21.365,0,0,1,4.188,6.316c2.829,5.951,3.59,11.991,3.052,20.041a44.481,44.481,0,0,1-9.946,25.158,37.2,37.2,0,0,1-17.115,11.4c-6.119,1.9-16.113,1.74-22.139-.541-.456-.173-.559-.217-1.006-.4a6.986,6.986,0,0,0,1.489-1.271c.177-.185.386-.407.536-.565,1.828-1.922,3.3-5.917,3.521-8.694.56-6.962-1.227-10.458-3.091-17.255a47.275,47.275,0,0,1-1.283-6.013c-1.029-7.145-.669-13.581,1.871-19.062,3.622-7.782,10.1-13.175,19.637-15.03" transform="translate(-26.354 -12.82)"/>
        <path id="Path_605" data-name="Path 605" d="M369.605,155.9a19.04,19.04,0,0,1-1.474,2.231l-.164.249a45.217,45.217,0,0,1-9.612,10.026,35.641,35.641,0,0,1-9.421,4.72,25.162,25.162,0,0,1-6.852,1.2,19.231,19.231,0,0,1-3.623-.212,6.355,6.355,0,0,1-4.949-3.609,13.024,13.024,0,0,1-.283-8.184c1.934-7.065,6.514-13.859,11.834-18.929a52.875,52.875,0,0,1,13.233-9.2c3.7-1.761,8.632-3.753,13.935-3.663a4.815,4.815,0,0,1,3.13,1.092,2.7,2.7,0,0,1,.931,2.111,8.04,8.04,0,0,1-2.451,6.013c-4.063,4.13-10.208,7.1-18.259,8.763-1.934.4-4.618-.028-5.555-1.851l-.183-.355.408.044c6.163.667,12.437-.925,16.786-4.262,1.532-1.219,3.462-3.441,3.235-5.664-.154-1.493-1.771-2.42-3.4-2.42h-.005a16.748,16.748,0,0,0-8.879,2.577,39.517,39.517,0,0,0-14.31,14.795c-2.758,5.287-4.008,9.66-3.93,13.759a4.941,4.941,0,0,0,2.97,4.765,7.952,7.952,0,0,0,2.712.433,16.417,16.417,0,0,0,6.762-1.274,32.155,32.155,0,0,0,12.828-10.53,42.2,42.2,0,0,0,2.907-4.207c.471-.811.783-1.52,1.249-2.461l.818-1.836c.14-.324.394-.355.419.053a11.917,11.917,0,0,1-.809,5.825" transform="translate(-45.621 -17.898)"/>
        <path id="Path_606" data-name="Path 606" d="M431.841,148.668c-.208.32-.476.136-.4-.265a10.908,10.908,0,0,1,4.75-7.6,14.939,14.939,0,0,1,8.969-2.619,6.194,6.194,0,0,1,5.865,5.155c.425,2.734-.333,5.623-2.306,9.058A48.675,48.675,0,0,1,435.2,167.244c-3.836,2.709-7.265,5.022-12.617,6.447a21.285,21.285,0,0,1-6.179.652,10.2,10.2,0,0,1-5.141-1.237c-2.28-1.369-3.641-4.823-3.364-7.616.276-5.308,2.715-10.795,7.471-16.47a53.474,53.474,0,0,1,20.048-14.657,45.617,45.617,0,0,1,14.078-3.489c.192,0,.714-.022.9-.028a11.519,11.519,0,0,1,1.476.048l.274.041-1.488,4.1-.162-.008c-6.9-.347-12.781.583-17.5,2.767a27.229,27.229,0,0,0-11.554,9.977c-3.288,4.842-5.565,9.624-6.322,14.249-.413,2.52-.331,4.965.853,6.438,1.286,1.705,4.723,2.288,7.114,2a17.67,17.67,0,0,0,7.922-3.005c5.723-4.028,8.976-9.3,11.66-14.864,1.118-2.542,2.1-5.271,1.678-7.97a3.5,3.5,0,0,0-1.424-2.519,3.816,3.816,0,0,0-2.671-.4c-3.3.429-5.5,2.8-7.168,5.118-.449.623-1.067,1.533-1.246,1.853" transform="translate(-55.927 -17.941)"/>
        <path id="Path_607" data-name="Path 607" d="M385.322,137.526c4.518-2.351,10.258-4.458,14.675-6.918.213,4.755-2.571,9.252-4.6,13.664,5.689-3.838,11.24-8.126,17.522-11.454,2.685-1.42,6.375-2.863,9.726-1.9-.57,1.57-1.337,3.1-1.975,4.654A14.605,14.605,0,0,0,410.63,136.9a46.892,46.892,0,0,0-15.7,12.463c-5.2,6.988-8.555,15.326-11.834,22.9-2.355.462-5.6.96-7.939,1.458,4.965-10.42,10.712-21.294,14.489-32.017.468-1.319,1.092-3.369-.909-4.058-.819-.282-2.424.4-2.912.594s-.949-.465-.5-.711" transform="translate(-51.441 -17.909)"/>
        <path id="Path_608" data-name="Path 608" d="M316.735,96.461c-4.1,1.638-10.015,3.858-13.866,5.4-.723.29-1.64.639-2.492.989-.376.135-.17.937.33.814,1.471-.362,2.884-.958,4.3-.3,1.193.544,1.2,1.752.8,2.8l-.772,1.847-28.582,61.4a77.851,77.851,0,0,0,22.994-4.258c7.822-2.854,14.187-7.35,20.141-12.552,5.011-4.27,8.865-10.516,11.281-16.164a9.753,9.753,0,0,0,.118-7.851,5.732,5.732,0,0,0-4.372-2.524,26.166,26.166,0,0,0-11.014,1.794c-6.781,2.657-12.934,7.348-18.426,11.582,4.508-9.178,9.581-20.01,14.008-29.334l.436-.964,5.7-12.25c.218-.459-.009-.687-.585-.435m6.378,40.781c-1.1,3.889-3.675,8.166-6.082,11.59a38.68,38.68,0,0,1-16.336,13.33,31.755,31.755,0,0,1-14.972,2.15,85.468,85.468,0,0,1,11.588-19.555,65.385,65.385,0,0,1,13.231-11.79c2.423-1.494,5.156-2.978,8.264-2.99,1.415-.06,3.319.625,3.869,1.745a7.27,7.27,0,0,1,.439,5.52" transform="translate(-37.907 -13.213)"/>
        <path id="Path_609" data-name="Path 609" d="M483.083,115.589c1.626-.557,3.869-.116,4.419,1.437,1.422,3.076-3.415,6.9-6.77,4.718-2.571-1.889-.548-5.454,2.351-6.155" transform="translate(-65.756 -15.818)"/>
        <path id="Path_610" data-name="Path 610" d="M468.578,168.051l-14.258,5.556.007-.34c.14-5.806,2.892-11.2,5.554-16.417q.419-.818.829-1.631c.9-1.765,1.854-3.544,2.778-5.264,1.956-3.641,3.978-7.407,5.566-11.241a3.375,3.375,0,0,0,.277-2.723,1.612,1.612,0,0,0-1.261-.978,9.01,9.01,0,0,0-3.474.536.448.448,0,0,1-.369-.815c4.061-1.524,9.152-3.257,13.243-4.782l1.122-.417-.005.319c-.046,3.1-1.337,6.038-2.588,8.876l-.246.559c-2.114,4.571-4.474,9.14-6.756,13.559-1.42,2.752-2.887,5.6-4.281,8.41-.157.35-.326.707-.494,1.063a14.16,14.16,0,0,0-1.4,3.693,1.393,1.393,0,0,0,.236,1.1,2.207,2.207,0,0,0,1.914.922,15.066,15.066,0,0,0,3.137-.809c.632-.228.98.595.475.827" transform="translate(-62.296 -17.762)"/>
        <path id="Path_611" data-name="Path 611" d="M153.11,228.806q-.324,4.349-.646,8.7a6.112,6.112,0,0,0-.969-.078h-1.878a6,6,0,0,0-.949.078q1.292-6.677,2.3-13.28t1.857-13.4c.3.053.572.1.828.135a5.39,5.39,0,0,0,.827.06,5.263,5.263,0,0,0,.767-.06c.269-.039.551-.083.848-.135q1.091,2.33,2.281,4.737t2.382,4.8q1.191,2.388,2.383,4.679t2.281,4.349q2.424-4.349,4.826-9.105t4.584-9.455a9.4,9.4,0,0,0,1.735.2,9.268,9.268,0,0,0,1.7-.2q.4,3.341.868,7.183t.909,7.513q.444,3.671.888,6.855t.808,5.125q-.808-.078-1.635-.078h-3.291q-.849,0-1.7.078-.2-4-.667-8.659T173.5,219.6h-.081q-2.3,4.582-4.522,9.008t-4.4,8.892c-.135-.026-.261-.046-.383-.058a3.726,3.726,0,0,0-.768,0c-.12.012-.249.032-.383.058q-2.181-4.348-4.341-8.7t-4.462-8.814h-.081q-.646,4.465-.969,8.814" transform="translate(-20.385 -28.909)" fill="#d9bf61"/>
        <path id="Path_612" data-name="Path 612" d="M218.879,237.473q-.989-.078-1.873-.078h-3.5q-.884,0-1.748.078-.66-1.9-1.358-3.883t-1.482-3.961q-1.318-.038-2.634-.058t-2.634-.02q-1.07,0-2.14.02t-2.141.058q-.822,1.982-1.522,3.961t-1.276,3.883a6.23,6.23,0,0,0-.967-.078h-1.954a8.058,8.058,0,0,0-1.071.078q.494-1.008,1.318-2.8t1.81-4.038q.989-2.251,2.12-4.834t2.263-5.223q1.131-2.639,2.224-5.2t2-4.777c.274.053.535.1.782.136a5.322,5.322,0,0,0,1.564,0c.247-.039.507-.084.782-.136q1.318,3.3,2.82,7.067t3.024,7.4q1.522,3.631,2.965,6.892t2.634,5.514M204.309,218.1q-1.072,2.33-2.017,4.6t-1.852,4.64h7.532q-.906-2.367-1.79-4.64t-1.872-4.6" transform="translate(-26.406 -28.878)" fill="#d9bf61"/>
        <path id="Path_613" data-name="Path 613" d="M229.748,221.584q0-3.223-.081-5.727t-.242-5.029q.686.078,1.495.135t1.816.059q1.333,0,2.989-.1t4.321-.1a30.7,30.7,0,0,1,6.32.6,13.285,13.285,0,0,1,4.906,2.039,9.5,9.5,0,0,1,3.19,3.864,14.5,14.5,0,0,1,1.13,6.115,14.7,14.7,0,0,1-1.111,5.824,13.354,13.354,0,0,1-3.028,4.446,13.138,13.138,0,0,1-4.443,2.816,14.884,14.884,0,0,1-5.39.971q-3.03,0-5.17-.039t-3.716-.039H230.92a13.127,13.127,0,0,0-1.495.078q.16-2.406.242-4.912t.081-5.728Zm5.977,8.115v2.33q0,1.126.02,2.058c.013.621.021,1.023.021,1.2q.606.04,1.453.078t2.1.039a9.192,9.192,0,0,0,7.228-2.99q2.666-2.99,2.665-9.047a12.974,12.974,0,0,0-.667-4.31,9.4,9.4,0,0,0-1.877-3.243,8.185,8.185,0,0,0-2.908-2.058,9.657,9.657,0,0,0-3.8-.718q-1.454,0-2.363.059t-1.837.135c0,.181-.008.582-.021,1.2s-.02,1.32-.02,2.1V229.7Z" transform="translate(-31.459 -28.909)" fill="#d9bf61"/>
        <path id="Path_614" data-name="Path 614" d="M269.072,215.857q-.08-2.506-.242-5.029.686.078,1.495.135t1.817.059q1.008,0,1.817-.059t1.495-.135q-.162,2.524-.243,5.029t-.08,5.727v5.281q0,3.223.08,5.728t.243,4.912a13.171,13.171,0,0,0-1.495-.078h-3.634a13.128,13.128,0,0,0-1.495.078q.162-2.406.242-4.912t.081-5.728v-5.281q0-3.223-.081-5.727" transform="translate(-36.862 -28.909)" fill="#d9bf61"/>
        <path id="Path_615" data-name="Path 615" d="M287.7,218.555q0-2.679-.08-4.5t-.121-3.223a8.565,8.565,0,0,0,3.634,0q4.4,4.7,8.7,9.241t8.825,9.241v-7.144q0-1.9-.02-3.747t-.041-3.4q-.022-1.552-.081-2.679a12.438,12.438,0,0,0-.142-1.514,8.565,8.565,0,0,0,3.634,0q-.2,3.533-.323,6.387t-.2,5.378q-.08,2.525-.1,4.99t-.02,5.262V237.5q-.808-.079-1.655-.078a13.919,13.919,0,0,0-1.575.078q-8.32-9.319-17.648-18.754-.04,1.126-.06,2.251t-.02,2.291v4.5q0,2.33.02,3.961t.06,2.757q.041,1.126.081,1.845t.081,1.145a6.021,6.021,0,0,0-.969-.078h-.929q-.929,0-1.858.078a20.442,20.442,0,0,0,.2-2.212q.12-1.9.262-4.641t.242-5.941q.1-3.2.1-6.155" transform="translate(-39.339 -28.909)" fill="#d9bf61"/>
        <path id="Path_616" data-name="Path 616" d="M348.5,237.473q-.989-.078-1.873-.078h-3.5q-.884,0-1.748.078-.66-1.9-1.358-3.883t-1.482-3.961q-1.318-.038-2.634-.058t-2.634-.02q-1.07,0-2.14.02t-2.141.058q-.823,1.982-1.522,3.961t-1.276,3.883a6.23,6.23,0,0,0-.967-.078h-1.954a8.048,8.048,0,0,0-1.071.078q.494-1.008,1.318-2.8t1.81-4.038q.989-2.251,2.12-4.834t2.263-5.223q1.131-2.639,2.224-5.2t2-4.777c.273.053.535.1.782.136a5.322,5.322,0,0,0,1.564,0c.247-.039.507-.084.782-.136q1.318,3.3,2.82,7.067t3.024,7.4q1.522,3.631,2.964,6.892t2.634,5.514M333.926,218.1q-1.072,2.33-2.017,4.6t-1.852,4.64h7.532q-.906-2.367-1.79-4.64t-1.872-4.6" transform="translate(-44.179 -28.878)" fill="#d9bf61"/>
      </g>
    </g>
  </g>
</svg>
